<svg data-v-423bf9ae="" xmlns="http://www.w3.org/2000/svg" viewBox="0 0 602.9268292682926 163" class="iconAbove"><!----><!----><!----><g data-v-423bf9ae="" id="4d181dd0-e143-4e53-b6d5-704cd51904da" fill="#012F41" transform="matrix(5.946573734283447,0,0,5.946573734283447,-0.8826988935470581,99.67828369140625)"><path d="M8.22 0.70L4.59 9.66L0.97 0.70L0.15 0.70L4.19 10.53L5.00 10.53L9.03 0.70ZM17.30 2.23C16.34 0.78 15.12 0.56 13.72 0.56C12.11 0.56 9.95 1.20 10.00 3.28C10.00 5.08 11.83 5.45 13.62 5.80C15.23 6.10 16.86 6.43 16.84 7.90C16.84 9.63 14.92 9.97 13.72 9.97C12.52 9.97 10.98 9.38 10.37 8.19L9.70 8.53C10.46 10.02 12.19 10.65 13.72 10.65C15.36 10.65 17.58 10.12 17.60 7.91C17.60 5.80 15.64 5.46 13.75 5.10C12.10 4.79 10.75 4.49 10.75 3.25C10.75 1.68 12.57 1.26 13.72 1.26C14.83 1.27 15.97 1.44 16.69 2.59ZM19.95 1.46L25.79 1.46L25.79 0.70L19.19 0.70L19.19 10.51L19.95 10.51L19.95 6.08L25.59 6.08L25.59 5.36L19.95 5.36ZM34.43 2.23C33.46 0.78 32.24 0.56 30.84 0.56C29.23 0.56 27.08 1.20 27.12 3.28C27.12 5.08 28.95 5.45 30.74 5.80C32.35 6.10 33.98 6.43 33.96 7.90C33.96 9.63 32.05 9.97 30.84 9.97C29.64 9.97 28.10 9.38 27.50 8.19L26.82 8.53C27.58 10.02 29.32 10.65 30.84 10.65C32.48 10.65 34.71 10.12 34.72 7.91C34.72 5.80 32.76 5.46 30.87 5.10C29.22 4.79 27.87 4.49 27.87 3.25C27.87 1.68 29.69 1.26 30.84 1.26C31.95 1.27 33.10 1.44 33.81 2.59ZM47.14 2.23C46.17 0.78 44.95 0.56 43.55 0.56C41.94 0.56 39.79 1.20 39.83 3.28C39.83 5.08 41.66 5.45 43.46 5.80C45.07 6.10 46.69 6.43 46.68 7.90C46.68 9.63 44.76 9.97 43.55 9.97C42.35 9.97 40.81 9.38 40.21 8.19L39.54 8.53C40.29 10.02 42.03 10.65 43.55 10.65C45.19 10.65 47.42 10.12 47.43 7.91C47.43 5.80 45.47 5.46 43.58 5.10C41.93 4.79 40.59 4.49 40.59 3.25C40.59 1.68 42.41 1.26 43.55 1.26C44.66 1.27 45.81 1.44 46.52 2.59ZM49.59 3.56L49.59 10.50L48.90 10.50L48.90 3.56ZM48.71 1.33C48.71 2.06 49.81 2.06 49.81 1.33C49.81 0.60 48.71 0.60 48.71 1.33ZM62.48 10.50L62.48 6.36C62.48 4.63 61.28 3.44 59.58 3.44C58.52 3.44 57.44 4.02 57.02 5.15C56.62 3.92 55.51 3.44 54.46 3.44C53.56 3.44 52.68 3.82 52.21 4.73L52.19 3.58L51.55 3.58L51.55 10.50L52.23 10.50L52.23 6.40C52.23 5.07 53.13 4.10 54.45 4.10C55.76 4.10 56.67 5.07 56.67 6.40L56.67 10.50L57.36 10.50L57.36 6.40C57.36 5.07 58.27 4.09 59.58 4.09C60.90 4.09 61.80 5.03 61.80 6.36L61.80 10.50ZM70.36 10.50L70.36 3.57L69.68 3.57L69.68 7.42C69.68 8.85 68.68 9.93 67.26 9.94C65.76 9.95 64.79 9.11 64.79 7.55L64.79 3.57L64.11 3.57L64.11 7.56C64.11 9.48 65.38 10.61 67.23 10.61C68.19 10.60 69.16 10.21 69.69 9.25L69.69 10.50ZM72.17 0.70L72.17 10.50L72.86 10.50L72.86 0.70ZM80.74 3.58L80.74 5.10C80.16 4.02 79.03 3.50 77.91 3.50C75.98 3.50 74.40 4.93 74.40 7.04C74.40 9.16 75.98 10.61 77.91 10.61C79.03 10.61 80.07 10.11 80.74 9.03L80.74 10.50L81.42 10.50C81.42 8.19 81.42 5.89 81.42 3.58ZM77.91 4.16C81.76 4.16 81.76 9.94 77.91 9.94C76.34 9.94 75.08 8.78 75.08 7.04C75.08 5.31 76.34 4.16 77.91 4.16ZM84.20 1.57L84.20 3.58L82.73 3.58L82.73 4.16L84.20 4.16L84.20 8.37C84.20 9.73 84.67 10.60 86.14 10.60C86.58 10.60 87.01 10.46 87.44 10.25L87.21 9.69C86.86 9.86 86.48 9.97 86.14 9.97C85.06 9.97 84.87 9.31 84.87 8.37L84.87 4.16L87.22 4.16L87.22 3.58L84.87 3.58L84.87 1.50ZM91.99 10.60C93.94 10.60 95.51 9.25 95.51 7.06C95.51 4.86 93.94 3.46 91.99 3.46C90.05 3.46 88.48 4.86 88.48 7.06C88.48 9.25 90.05 10.60 91.99 10.60ZM91.99 9.93C90.43 9.93 89.15 8.85 89.15 7.06C89.15 5.26 90.43 4.10 91.99 4.10C93.56 4.10 94.84 5.26 94.84 7.06C94.84 8.85 93.56 9.93 91.99 9.93ZM97.09 3.58L97.09 10.50L97.78 10.50L97.78 6.47C97.78 5.21 98.77 4.17 100.06 4.16C100.46 4.16 100.87 4.26 101.23 4.48L101.54 3.92C101.08 3.64 100.58 3.50 100.06 3.51C99.18 3.51 98.20 3.88 97.76 4.82L97.73 3.58Z"></path></g><defs data-v-423bf9ae=""><linearGradient data-v-423bf9ae="" gradientTransform="rotate(25)" id="af3e32bd-e677-41f4-966d-7a43ad7dd9de" x1="0%" y1="0%" x2="100%" y2="0%"><stop data-v-423bf9ae="" offset="0%" style="stop-color: rgb(8, 199, 214); stop-opacity: 1;"></stop><stop data-v-423bf9ae="" offset="100%" style="stop-color: rgb(2, 2, 62); stop-opacity: 1;"></stop></linearGradient></defs><g data-v-423bf9ae="" id="40b09e79-0ded-4781-a979-6b4cadc9978d" transform="matrix(2.8125,0,0,2.8125,257,0)" stroke="none" fill="url(#af3e32bd-e677-41f4-966d-7a43ad7dd9de)"><path d="M0 16.024L15.976 32 32 15.976 16.024 0 0 16.024zm15.989 7.323l-7.336-7.336 14.694-.022-7.358 7.358z"></path></g><!----></svg>